<?xml version="1.0" encoding="UTF-8" standalone="no"?>
<svg
   width="207.92113mm"
   height="106.9209mm"
   viewBox="0 0 207.92113 106.9209"
   version="1.1"
   id="svg5"
   inkscape:version="1.1-alpha (c0348e27, 2021-02-14)"
   sodipodi:docname="logo.svg"
   xmlns:inkscape="http://www.inkscape.org/namespaces/inkscape"
   xmlns:sodipodi="http://sodipodi.sourceforge.net/DTD/sodipodi-0.dtd"
   xmlns="http://www.w3.org/2000/svg"
   xmlns:svg="http://www.w3.org/2000/svg">
  <sodipodi:namedview
     id="namedview7"
     pagecolor="#ffffff"
     bordercolor="#666666"
     borderopacity="1.0"
     objecttolerance="10.0"
     gridtolerance="10.0"
     guidetolerance="10.0"
     inkscape:pageshadow="2"
     inkscape:pageopacity="0.0"
     inkscape:pagecheckerboard="0"
     inkscape:document-units="mm"
     showgrid="false"
     inkscape:zoom="1.5554293"
     inkscape:cx="325.31212"
     inkscape:cy="158.7986"
     inkscape:window-width="1887"
     inkscape:window-height="1274"
     inkscape:window-x="1690"
     inkscape:window-y="38"
     inkscape:window-maximized="0"
     inkscape:current-layer="layer1"
     showguides="true"
     inkscape:guide-bbox="true">
    <sodipodi:guide
       position="113.639,101.29775"
       orientation="1,0"
       id="guide7605" />
  </sodipodi:namedview>
  <defs
     id="defs2" />
  <g
     inkscape:label="Layer 1"
     inkscape:groupmode="layer"
     id="layer1"
     transform="translate(-1.3506969,-51.021183)">
    <path
       sodipodi:type="spiral"
       style="opacity:0.8;fill:none;fill-rule:evenodd;stroke:#acacac;stroke-width:4.6295;stroke-miterlimit:4;stroke-dasharray:none;fill-opacity:1;stroke-opacity:1"
       id="path32"
       sodipodi:cx="399.88959"
       sodipodi:cy="398.60379"
       sodipodi:expansion="1"
       sodipodi:revolution="3.7815282"
       sodipodi:radius="86.023911"
       sodipodi:argument="-18.024179"
       sodipodi:t0="0"
       transform="matrix(0.67765374,0,0,0.67765374,-216.28338,-161.69174)"
       d="m 399.88959,398.60379 c 2.32088,2.51429 -2.24417,4.36896 -4.17891,3.85746 -5.24303,-1.38615 -5.8224,-8.19601 -3.53601,-12.21528 4.08983,-7.18952 13.98209,-7.65525 20.25164,-3.21455 9.20083,6.5169 9.5461,19.84798 2.89311,28.288 -8.86739,11.24923 -25.74238,11.46187 -36.32438,2.57166 -13.31635,-11.18743 -13.39057,-31.65041 -2.2502,-44.36074 13.49249,-15.39391 37.56613,-15.32678 52.39711,-1.92875 17.47779,15.78912 17.2677,43.48663 1.60729,60.43347 -18.08055,19.56579 -49.41034,19.21176 -68.46983,1.28584 -21.65661,-20.36857 -21.15803,-55.33629 -0.96439,-76.5062 22.6542,-23.74943 61.26388,-23.10588 84.54256,-0.64294 25.84375,24.93812 25.05493,67.19271 0.32149,92.57893 -27.22076,27.93919 -73.12248,27.0049 -100.61529,4e-5 -30.0355,-29.50241 -28.95559,-79.05301 0.32141,-108.65166 31.78331,-32.1325 84.98414,-30.90684 116.68803,0.64286 4.01342,3.99391 7.62681,8.38813 10.774,13.09481" />
    <path
       sodipodi:type="spiral"
       style="opacity:0.8;fill:none;fill-rule:evenodd;stroke:#acacac;stroke-width:7.55906;stroke-linecap:butt;stroke-linejoin:bevel;stroke-miterlimit:4;stroke-dasharray:none;paint-order:normal;stroke-opacity:1"
       id="path34"
       sodipodi:cx="511.75583"
       sodipodi:cy="234.019"
       sodipodi:expansion="1"
       sodipodi:revolution="3.206697"
       sodipodi:radius="47.012054"
       sodipodi:argument="-17.545012"
       sodipodi:t0="0"
       transform="matrix(0.41502409,0,0,0.41502513,-91.19076,-29.044239)"
       d="m 511.75583,234.019 c 0.58022,2.12747 -2.58153,1.83174 -3.536,0.96436 -2.58655,-2.35055 -0.89451,-6.41715 1.60727,-8.03636 4.4751,-2.89639 10.27071,-0.2235 12.53673,4.17891 3.32548,6.46071 -0.43806,14.18714 -6.75055,17.03709 -8.41355,3.79854 -18.12728,-1.09384 -21.53745,-9.32219 -4.29137,-10.35453 1.74626,-22.07906 11.89382,-26.03782 12.29006,-4.79459 26.03746,2.39668 30.53818,14.46546 5.30395,14.22265 -3.04582,30.00001 -17.03709,35.03855 -16.15348,5.8172 -33.96532,-3.69412 -39.53892,-19.60873 -6.33307,-18.08319 4.34184,-37.93256 22.18038,-44.03928 20.01214,-6.85081 41.90121,4.98912 48.53964,24.75201 7.36991,21.94055 -5.63609,45.87093 -27.32365,53.04001 -19.25138,6.36376 -40.76344,-1.56812 -51.93525,-18.32868" />
    <path
       sodipodi:type="spiral"
       style="opacity:0.8;fill:none;fill-rule:evenodd;stroke:#acacac;stroke-width:7.29693;stroke-miterlimit:4;stroke-dasharray:none;stroke-opacity:1"
       id="path32-2"
       sodipodi:cx="399.88959"
       sodipodi:cy="398.60379"
       sodipodi:expansion="1"
       sodipodi:revolution="3.8361087"
       sodipodi:radius="87.265541"
       sodipodi:argument="-18.024179"
       sodipodi:t0="0"
       transform="matrix(-0.43783957,0,0,-0.42217206,349.30208,274.66095)"
       d="m 399.88959,398.60379 c 2.32088,2.51429 -2.24417,4.36896 -4.17891,3.85746 -5.24303,-1.38615 -5.82241,-8.19601 -3.53601,-12.21528 4.08983,-7.18952 13.98209,-7.65525 20.25164,-3.21455 9.20083,6.5169 9.5461,19.84798 2.89311,28.28801 -8.86739,11.24923 -25.74238,11.46186 -36.32438,2.57165 -13.31636,-11.18743 -13.39057,-31.65041 -2.2502,-44.36074 13.49249,-15.39392 37.56613,-15.32679 52.39711,-1.92875 17.4778,15.78912 17.2677,43.48664 1.6073,60.43347 -18.08056,19.5658 -49.41035,19.21177 -68.46984,1.28585 -21.65661,-20.36857 -21.15803,-55.3363 -0.9644,-76.50621 22.65421,-23.74944 61.2639,-23.10588 84.54258,-0.64294 25.84375,24.93812 25.05493,67.19272 0.32149,92.57894 -27.22076,27.93919 -73.1225,27.0049 -100.61531,4e-5 -30.0355,-29.50242 -28.95559,-79.05302 0.32141,-108.65168 31.78332,-32.1325 84.98415,-30.90684 116.68804,0.64287 11.06206,11.00825 18.96877,25.01879 22.7656,40.15018" />
    <path
       sodipodi:type="spiral"
       style="opacity:0.8;fill:none;fill-rule:evenodd;stroke:#acacac;stroke-width:8.95834;stroke-miterlimit:4;stroke-dasharray:none;stroke-opacity:1"
       id="path34-1"
       sodipodi:cx="511.75583"
       sodipodi:cy="234.019"
       sodipodi:expansion="1"
       sodipodi:revolution="3.2604985"
       sodipodi:radius="47.800812"
       sodipodi:argument="-17.545012"
       sodipodi:t0="0"
       transform="matrix(-0.3566377,0,0,-0.34387589,302.63336,197.70588)"
       d="m 511.75583,234.019 c 0.58022,2.12747 -2.58153,1.83174 -3.536,0.96436 -2.58655,-2.35055 -0.89451,-6.41715 1.60727,-8.03636 4.4751,-2.89639 10.27071,-0.2235 12.53673,4.17891 3.32548,6.46071 -0.43806,14.18713 -6.75055,17.03709 -8.41355,3.79854 -18.12728,-1.09384 -21.53745,-9.32219 -4.29136,-10.35453 1.74626,-22.07905 11.89382,-26.03781 12.29006,-4.7946 26.03746,2.39667 30.53818,14.46545 5.30395,14.22265 -3.04582,30.00001 -17.0371,35.03855 -16.15347,5.81719 -33.96531,-3.69412 -39.5389,-19.60873 -6.33308,-18.08319 4.34183,-37.93256 22.18037,-44.03928 20.01214,-6.85081 41.90121,4.98913 48.53963,24.75201 7.36991,21.94055 -5.63609,45.87093 -27.32364,53.04 -23.86856,7.89003 -49.84146,-6.28282 -57.54037,-29.89528 -0.32567,-0.99886 -0.61826,-2.0085 -0.87723,-3.02669" />
  </g>
</svg>
